<?xml version="1.0" standalone="no"?><!DOCTYPE svg PUBLIC "-//W3C//DTD SVG 1.1//EN" "http://www.w3.org/Graphics/SVG/1.1/DTD/svg11.dtd"><svg t="1730338812309" class="icon" viewBox="0 0 1024 1024" version="1.1" xmlns="http://www.w3.org/2000/svg" p-id="2441" xmlns:xlink="http://www.w3.org/1999/xlink" width="200" height="200"><path d="M341.333333 384a42.666667 42.666667 0 1 1-42.666666 42.666667 42.666667 42.666667 0 0 1 42.666666-42.666667m0-42.666667a85.333333 85.333333 0 1 0 85.333334 85.333334 85.333333 85.333333 0 0 0-85.333334-85.333334zM512 618.666667a21.333333 21.333333 0 1 1-21.333333 21.333333 21.333333 21.333333 0 0 1 21.333333-21.333333m0-42.666667a64 64 0 1 0 64 64 64 64 0 0 0-64-64zM725.333333 405.333333a21.333333 21.333333 0 1 1-21.333333 21.333334 21.333333 21.333333 0 0 1 21.333333-21.333334m0-42.666666a64 64 0 1 0 64 64 64 64 0 0 0-64-64z" p-id="2442"></path><path d="M667.733333 454.186667l-128 128a64 64 0 0 1 30.08 30.08l128-128a64 64 0 0 1-30.08-30.08zM490.666667 579.84l-81.706667-102.186667a83.413333 83.413333 0 0 1-33.28 26.666667l81.706667 101.973333A64 64 0 0 1 490.666667 579.84z" p-id="2443"></path><path d="M896 220.16v583.68L518.4 746.666667h-12.8L128 803.84V220.16L505.6 277.333333h12.8L896 220.16M938.666667 170.666667l-426.666667 64L85.333333 170.666667v682.666666l426.666667-64 426.666667 64V170.666667z" p-id="2444"></path></svg>