<?xml version="1.0" standalone="no"?><!DOCTYPE svg PUBLIC "-//W3C//DTD SVG 1.1//EN" "http://www.w3.org/Graphics/SVG/1.1/DTD/svg11.dtd"><svg t="1730343470254" class="icon" viewBox="0 0 1024 1024" version="1.1" xmlns="http://www.w3.org/2000/svg" p-id="2328" xmlns:xlink="http://www.w3.org/1999/xlink" width="200" height="200"><path d="M768 234.666667a42.666667 42.666667 0 0 1 38.912 25.173333l123.861333 275.2a41.685333 41.685333 0 0 1 0.768 1.706667l67.370667 149.76a42.666667 42.666667 0 1 1-77.824 34.986666l-56.448-125.44h-193.28l-56.448 125.44a42.666667 42.666667 0 1 1-77.824-34.986666l67.370667-149.717334a41.813333 41.813333 0 0 1 0.768-1.706666l27.861333-61.909334 96-213.333333A42.666667 42.666667 0 0 1 768 234.666667z m-58.24 276.053333h116.48L768 381.354667l-58.24 129.450666z m224.725333 48.768a42.538667 42.538667 0 0 0-0.512-15.018667zM277.333333 298.666667a170.666667 170.666667 0 1 0 0 341.333333 170.666667 170.666667 0 0 0 0-341.333333z m-256 170.666666a256 256 0 1 1 512 0 256 256 0 0 1-512 0z" fill="#333333" p-id="2329"></path><path d="M310.357333 546.688a42.666667 42.666667 0 0 1 60.288-1.706667l132.650667 125.568a42.666667 42.666667 0 1 1-58.666667 61.994667l-132.608-125.568a42.666667 42.666667 0 0 1-1.706666-60.330667z" fill="#333333" p-id="2330"></path></svg>