<?xml version="1.0" standalone="no"?><!DOCTYPE svg PUBLIC "-//W3C//DTD SVG 1.1//EN" "http://www.w3.org/Graphics/SVG/1.1/DTD/svg11.dtd"><svg t="1730347773496" class="icon" viewBox="0 0 1024 1024" version="1.1" xmlns="http://www.w3.org/2000/svg" p-id="3445" xmlns:xlink="http://www.w3.org/1999/xlink" width="200" height="200"><path d="M512 51.2c254.08 0 460.8 206.72 460.8 460.8s-206.72 460.8-460.8 460.8S51.2 766.08 51.2 512 257.92 51.2 512 51.2M512 0C229.248 0 0 229.248 0 512s229.248 512 512 512 512-229.248 512-512S794.752 0 512 0L512 0z" fill="#D1D3D4" p-id="3446"></path><path d="M741.312 700.352c0 16-12.928 28.992-28.928 28.992L311.616 729.344c-16 0-28.928-12.992-28.928-28.992L282.688 299.648c0-16 12.928-28.864 28.928-28.864l400.768 0c16 0 28.928 12.864 28.928 28.864L741.312 700.352z" fill="#D1D3D4" p-id="3447"></path></svg>