<?xml version="1.0" standalone="no"?><!DOCTYPE svg PUBLIC "-//W3C//DTD SVG 1.1//EN" "http://www.w3.org/Graphics/SVG/1.1/DTD/svg11.dtd"><svg t="1730352829646" class="icon" viewBox="0 0 1024 1024" version="1.1" xmlns="http://www.w3.org/2000/svg" p-id="4448" xmlns:xlink="http://www.w3.org/1999/xlink" width="200" height="200"><path d="M491.52 165.888V532.48c0 12.288 8.192 20.48 20.48 20.48s20.48-8.192 20.48-20.48v-370.688l110.592 108.544c8.192 8.192 20.48 8.192 28.672 0 8.192-8.192 8.192-20.48 0-28.672l-139.264-135.168c0-2.048-2.048-6.144-4.096-8.192-4.096-4.096-10.24-6.144-16.384-6.144-6.144 0-12.288 2.048-16.384 6.144-2.048 2.048-4.096 4.096-4.096 8.192l-139.264 135.168c-8.192 8.192-8.192 20.48 0 28.672 8.192 8.192 20.48 8.192 28.672 0l110.592-104.448z m-219.136 262.144c12.288 0 20.48-8.192 20.48-20.48s-8.192-20.48-20.48-20.48h-102.4v40.96h4.096v-40.96c-67.584 0-122.88 55.296-122.88 122.88v307.2c0 67.584 55.296 122.88 122.88 122.88h675.84c67.584 0 122.88-55.296 122.88-122.88v-307.2c0-67.584-55.296-122.88-122.88-122.88h-96.256c-12.288 0-20.48 8.192-20.48 20.48s8.192 20.48 20.48 20.48h96.256c45.056 0 81.92 36.864 81.92 81.92v307.2c0 45.056-36.864 81.92-81.92 81.92h-675.84c-45.056 0-81.92-36.864-81.92-81.92v-307.2c0-45.056 36.864-81.92 81.92-81.92v-40.96h-4.096v40.96h102.4z m116.736 278.528c-12.288 0-20.48 8.192-20.48 20.48s8.192 20.48 20.48 20.48h245.76c12.288 0 20.48-8.192 20.48-20.48s-8.192-20.48-20.48-20.48h-245.76z" fill="#32373B" p-id="4449"></path></svg>